{
    "asset": {
        "copyright": "2020 (c) Adobe Inc.",
        "generator": "Adobe Dimension - 611127eacd250f22943d21b3c2c9dbaa3a0ef9a2",
        "version": "2.0"
    },
    "accessors": [
        {
            "bufferView": 0,
            "componentType": 5126,
            "count": 4812,
            "type": "VEC3",
            "max": [
                0.3434081971645355,
                0.09305664151906967,
                0.0
            ],
            "min": [
                0.009521484375,
                0.0,
                -0.009999999776482582
            ]
        },
        {
            "bufferView": 1,
            "componentType": 5126,
            "count": 4812,
            "type": "VEC3"
        },
        {
            "bufferView": 2,
            "componentType": 5126,
            "count": 4812,
            "type": "VEC2"
        },
        {
            "bufferView": 3,
            "componentType": 5125,
            "count": 2412,
            "type": "SCALAR",
            "max": [
                4809.0
            ],
            "min": [
                1.0
            ]
        },
        {
            "bufferView": 4,
            "componentType": 5125,
            "count": 1200,
            "type": "SCALAR",
            "max": [
                4811.0
            ],
            "min": [
                0.0
            ]
        },
        {
            "bufferView": 5,
            "componentType": 5125,
            "count": 1200,
            "type": "SCALAR",
            "max": [
                4810.0
            ],
            "min": [
                5.0
            ]
        }
    ],
    "bufferViews": [
        {
            "buffer": 0,
            "byteOffset": 0,
            "byteLength": 57744,
            "target": 34962
        },
        {
            "buffer": 0,
            "byteOffset": 57744,
            "byteLength": 57744,
            "target": 34962
        },
        {
            "buffer": 0,
            "byteOffset": 115488,
            "byteLength": 38496,
            "target": 34962
        },
        {
            "buffer": 0,
            "byteOffset": 153984,
            "byteLength": 9648,
            "target": 34963
        },
        {
            "buffer": 0,
            "byteOffset": 163632,
            "byteLength": 4800,
            "target": 34963
        },
        {
            "buffer": 0,
            "byteOffset": 168432,
            "byteLength": 4800,
            "target": 34963
        }
    ],
    "buffers": [
        {
            "byteLength": 173232,
            "uri": "Untitled_binary.bin"
        }
    ],
    "cameras": [
        {
            "perspective": {
                "znear": 0.000010000000656873454,
                "yfov": 0.6024156808853149,
                "zfar": 2.0,
                "aspectRatio": 1.3333333730697632
            },
            "type": "perspective",
            "name": "render_camera"
        }
    ],
    "materials": [
        {
            "pbrMetallicRoughness": {
                "baseColorFactor": [
                    0.6307569742202759,
                    0.6307569742202759,
                    0.6307569742202759,
                    1.0
                ],
                "metallicFactor": 0.0,
                "roughnessFactor": 0.4000000059604645
            },
            "name": "Default Material 2",
            "doubleSided": true
        }
    ],
    "meshes": [
        {
            "name": "TextMesh#",
            "primitives": [
                {
                    "attributes": {
                        "POSITION": 0,
                        "NORMAL": 1,
                        "TEXCOORD_0": 2
                    },
                    "indices": 3,
                    "material": 0
                },
                {
                    "attributes": {
                        "NORMAL": 1,
                        "POSITION": 0,
                        "TEXCOORD_0": 2
                    },
                    "indices": 4,
                    "material": 0
                },
                {
                    "attributes": {
                        "POSITION": 0,
                        "NORMAL": 1,
                        "TEXCOORD_0": 2
                    },
                    "indices": 5,
                    "material": 0
                }
            ]
        }
    ],
    "nodes": [
        {
            "translation": [
                0.5,
                0.29999998211860659,
                0.5
            ],
            "rotation": [
                -0.12059047073125839,
                0.379409521818161,
                0.04995020851492882,
                0.9159756302833557
            ],
            "scale": [
                1.0,
                1.0,
                0.9999999403953552
            ],
            "camera": 0,
            "name": "render_camera_n3d"
        },
        {
            "translation": [
                -0.3818569481372833,
                0.0,
                -0.219575896859169
            ],
            "mesh": 0,
            "name": "Text"
        }
    ],
    "scenes": [
        {
            "nodes": [
                0,
                1
            ],
            "name": "scene"
        }
    ],
    "scene": 0
}